<?xml version="1.0" encoding="iso-8859-1"?>
<!-- Uploaded to: SVG Repo, www.svgrepo.com, Generator: SVG Repo Mixer Tools -->
<!DOCTYPE svg PUBLIC "-//W3C//DTD SVG 1.1//EN" "http://www.w3.org/Graphics/SVG/1.1/DTD/svg11.dtd">
<svg fill="#000000" height="800px" width="800px" version="1.1" id="Capa_1" xmlns="http://www.w3.org/2000/svg" xmlns:xlink="http://www.w3.org/1999/xlink" 
	 viewBox="0 0 194.984 194.984" xml:space="preserve">
<path d="M144.939,117.643l-3.689,2.13l-23.902-61.596L29.281,0l6.349,105.357l41.392,51.499l-3.746,2.163l20.765,35.965
	l71.663-41.375L144.939,117.643z M50.315,99.685l-4.256-70.623l59.034,38.997l22.977,59.21l-37.966,21.92L50.315,99.685z
	 M93.766,164.509l45.683-26.375l5.765,9.986L99.53,174.494L93.766,164.509z M78.375,66.865c-3.18,0-6.321,0.843-9.082,2.438
	c-4.208,2.428-7.217,6.35-8.475,11.042c-1.257,4.692-0.612,9.593,1.817,13.802c3.24,5.609,9.278,9.094,15.759,9.094
	c3.179,0,6.32-0.843,9.083-2.439c8.682-5.014,11.667-16.157,6.655-24.842C90.896,70.35,84.857,66.865,78.375,66.865z"/>
</svg>